<svg id="_x31_px" enable-background="new 0 0 24 24" height="512" viewBox="0 0 24 24" width="512" xmlns="http://www.w3.org/2000/svg"><g id="XMLID_1_"><path d="m24 9.867v1.96c0 .28-.22.5-.5.5s-.5-.22-.5-.5v-1.96c0-.28.22-.5.5-.5s.5.22.5.5z"/><path d="m24 21.497c0 .07 0 .15-.01.22-.02.26-.24.45-.5.45-.01 0-.03 0-.04 0-.28-.02-.48-.27-.46-.54.01-.04.01-.08.01-.13v-1.8c0-.27.22-.5.5-.5s.5.23.5.5z"/><path d="m24 6.907c0 .28-.22.5-.5.5-.24 0-.44-.17-.49-.4-.01-.03-.01-.07-.01-.1v-1.96c0-.28.22-.5.5-.5s.5.22.5.5z"/><path d="m23.5 14.277c.28 0 .5.23.5.5v1.97c0 .28-.22.5-.5.5s-.5-.22-.5-.5v-1.97c0-.27.22-.5.5-.5z"/><path d="m23.92 1.867c.07.27-.09.55-.36.61-.04.01-.08.02-.12.02-.23 0-.43-.15-.49-.38-.12-.48-.48-.87-.96-1.04-.21-.07-.34-.26-.34-.47 0-.05.01-.11.03-.16.09-.26.38-.4.64-.31.79.27 1.39.92 1.6 1.73z"/><path d="m22.01 23.497c0 .28-.21.5-.49.5h-1.99c-.27 0-.5-.22-.5-.5 0-.27.23-.5.5-.5h1.97c.28 0 .51.23.51.5z"/><path d="m21 13.997c0 .12-.04.24-.13.34-.1.11-.23.16-.37.16-.12 0-.24-.04-.33-.12l-.17-.15v-1.36l.84.76c.11.1.16.24.16.37z"/><path d="m19.21-.003c.28 0 .5.23.5.5 0 .04 0 .07-.01.1-.05.23-.24.4-.49.4h-1.96c-.28 0-.5-.22-.5-.5 0-.27.22-.5.5-.5h1.96z"/><path d="m16.58 22.997c.28 0 .5.23.5.5 0 .28-.22.5-.5.5h-1.97c-.27 0-.5-.22-.5-.5 0-.27.23-.5.5-.5z"/><path d="m20.87 14.337c.09-.1.13-.22.13-.34v2.5c0 .83-.67 1.5-1.5 1.5h-3.5c.15 0 .29-.06.39-.18.17-.22.14-.53-.08-.71l-.14-.11h3.33c.27 0 .5-.22.5-.5v-2.27l.17.15c.09.08.21.12.33.12.14 0 .27-.05.37-.16z"/><path d="m15.69 17.887-1.11-.89h1.59l.14.11c.22.18.25.49.08.71-.1.12-.24.18-.39.18-.11 0-.22-.03-.31-.11z"/><path d="m10.88 12.757 4.3-3.64c.19-.16.47-.16.66.01l4.16 3.74v1.36l-4.51-4.06-3.82 3.23z"/><path d="m14.3-.003c.27 0 .5.23.5.5 0 .28-.23.5-.5.5h-1.97c-.28 0-.5-.22-.5-.5 0-.27.22-.5.5-.5h1.97z"/><path d="m11.66 22.997c.28 0 .5.23.5.5 0 .28-.22.5-.5.5h-1.97c-.27 0-.5-.22-.5-.5 0-.27.23-.5.5-.5z"/><path d="m11.2 13.797.47-.4 4.5 3.6h-1.59l-3.96-3.16c.18.11.41.1.58-.04z"/><path d="m10.52 13.757.1.08c-.04-.02-.07-.05-.1-.08z"/><path d="m10.88 12.757.79.64-.47.4c-.17.14-.4.15-.58.04l-.1-.08c-.01-.01-.01-.01-.02-.02-.18-.21-.15-.53.06-.71z"/><path d="m9.38-.003c.27 0 .5.23.5.5 0 .28-.23.5-.5.5h-1.97c-.28 0-.5-.22-.5-.5 0-.27.22-.5.5-.5h1.97z"/><path d="m8.48 12.127-4.48 3.13v-1.22l4.21-2.95c.19-.12.43-.12.6.02l2.07 1.65-.32.27c-.21.18-.24.5-.06.71z"/><path d="m6.74 22.997c.28 0 .5.23.5.5 0 .28-.22.5-.5.5h-1.97c-.27 0-.5-.22-.5-.5 0-.27.23-.5.5-.5z"/><path d="m4.46-.003c.27 0 .5.23.5.5 0 .28-.23.5-.5.5h-1.96c-.18 0-.33-.09-.42-.22-.06-.08-.09-.18-.09-.28 0-.27.22-.5.5-.5h1.97z"/><path d="m3.21 14.587.79-.55v1.22l-.21.15c-.23.16-.54.11-.7-.12-.06-.09-.09-.19-.09-.29 0-.16.07-.31.21-.41z"/><path d="m4 16.497c0 .28.22.5.5.5h10.08l1.11.89c.09.08.2.11.31.11h-11.5c-.83 0-1.5-.67-1.5-1.5v-1.5c0 .1.03.2.09.29.16.23.47.28.7.12l.21-.15z"/><path d="m4 7.497v6.54l-.79.55c-.14.1-.21.25-.21.41v-.87-6.63c0-.82.67-1.5 1.5-1.5h15c.73 0 1.33.52 1.47 1.2.02.1.03.2.03.3v6.5c0-.13-.05-.27-.16-.37l-.84-.76v-5.37c0-.27-.23-.5-.5-.5h-15c-.28 0-.5.23-.5.5z"/><path d="m.08 22.117c-.07-.27.09-.54.36-.61s.54.1.6.36c.13.49.49.88.96 1.05.26.09.4.38.31.64-.08.2-.27.33-.47.33-.06 0-.12-.01-.17-.03-.79-.28-1.39-.93-1.59-1.74z"/><path d="m.01 2.277c.02-.26.27-.46.52-.46h.02c.27.03.48.27.46.54-.01.05-.01.1-.01.14v1.79c0 .28-.22.5-.5.5s-.5-.22-.5-.5v-1.79c0-.07 0-.14.01-.22z"/><path d="m1 12.157v1.97c0 .28-.22.5-.5.5s-.5-.22-.5-.5v-1.97c0-.27.22-.5.5-.5s.5.23.5.5z"/><path d="m1 7.237v1.97c0 .28-.22.5-.5.5s-.5-.22-.5-.5v-1.97c0-.27.22-.5.5-.5s.5.23.5.5z"/><path d="m.5 16.577c.28 0 .5.23.5.5v1.97c0 .28-.22.5-.5.5s-.5-.22-.5-.5v-1.97c0-.27.22-.5.5-.5z"/></g></svg>